<svg fill="none" height="512" viewBox="0 0 24 24" width="512" xmlns="http://www.w3.org/2000/svg"><g fill="rgb(0,0,0)"><path d="m15 2.99999c0-.3844-.2203-.73478-.5668-.9013s-.7577-.1197-1.0579.12044l-4.45217 3.56173c-.17731.14185-.39762.21913-.62469.21913h-3.29844c-1.65685 0-3 1.34315-3 3v6.00001c0 1.6568 1.34315 3 3 3h3.29844c.22707 0 .44738.0773.62469.2191l4.45217 3.5618c.3002.2401.7114.2869 1.0579.1204s.5668-.5169.5668-.9013z"/><path d="m17 12c0-.9707-.3169-1.8071-.7745-2.36742-.3494-.42774-.2858-1.05771.1419-1.40707.4278-.34937 1.0577-.28583 1.4071.14191.7744.94813 1.2255 2.24208 1.2255 3.63258s-.4511 2.6845-1.2255 3.6326c-.3494.4277-.9793.4913-1.4071.1419-.4277-.3494-.4913-.9793-.1419-1.4071.4576-.5603.7745-1.3967.7745-2.3674z"/><path d="m18.2255 6.63258c1.0736 1.31449 1.7745 3.21611 1.7745 5.36742 0 2.1513-.7009 4.0529-1.7745 5.3674-.3494.4278-.2858 1.0577.1419 1.4071.4278.3494 1.0577.2858 1.4071-.1419 1.3904-1.7024 2.2255-4.0615 2.2255-6.6326 0-2.57112-.8351-4.93025-2.2255-6.63258-.3494-.42774-.9793-.49128-1.4071-.14191-.4277.34936-.4913.97933-.1419 1.40707z"/></g></svg>