<svg xmlns="http://www.w3.org/2000/svg" viewBox="0 0 250 250">
  <!-- Tło z gradientem kosmicznym -->
  <defs>
    <radialGradient id="spaceGradient" cx="50%" cy="50%" r="70%" fx="50%" fy="50%">
      <stop offset="0%" stop-color="#1a0a2e" />
      <stop offset="50%" stop-color="#0f0423" />
      <stop offset="100%" stop-color="#030007" />
    </radialGradient>
    
    <!-- Gradient dla efektu silnika -->
    <radialGradient id="engineGlow" cx="50%" cy="0%" r="100%" fx="50%" fy="0%">
      <stop offset="0%" stop-color="#ff8a00" />
      <stop offset="40%" stop-color="#ff4500" />
      <stop offset="100%" stop-color="#ff0000" stop-opacity="0" />
    </radialGradient>
    
    <!-- Gradient dla efektu wybuchu -->
    <radialGradient id="explosionGlow" cx="50%" cy="50%" r="100%" fx="50%" fy="50%">
      <stop offset="0%" stop-color="#ffff00" />
      <stop offset="40%" stop-color="#ff6600" />
      <stop offset="100%" stop-color="#ff0000" stop-opacity="0.6" />
    </radialGradient>
    
    <!-- Gradient dla laserów -->
    <linearGradient id="laserGradient" x1="0%" y1="0%" x2="100%" y2="0%">
      <stop offset="0%" stop-color="#ff00ff" stop-opacity="0.7" />
      <stop offset="50%" stop-color="#ffff00" />
      <stop offset="100%" stop-color="#ff00ff" stop-opacity="0.7" />
    </linearGradient>
    
    <!-- Filtr dla blasku -->
    <filter id="glow" x="-50%" y="-50%" width="200%" height="200%">
      <feGaussianBlur stdDeviation="2.5" result="blur" />
      <feMerge>
        <feMergeNode in="blur" />
        <feMergeNode in="SourceGraphic" />
      </feMerge>
    </filter>
    
    <!-- Filtr dla blasku przycisków -->
    <filter id="buttonGlow" x="-30%" y="-30%" width="160%" height="160%">
      <feGaussianBlur stdDeviation="3" result="blur" />
      <feFlood flood-color="#00ffff" result="glow-color" />
      <feComposite in="glow-color" in2="blur" operator="in" result="glow-blur" />
      <feMerge>
        <feMergeNode in="glow-blur" />
        <feMergeNode in="SourceGraphic" />
      </feMerge>
    </filter>
  </defs>
  
  <!-- Tło kosmosu z ramką -->
  <rect width="250" height="250" fill="url(#spaceGradient)" rx="25" ry="25" />
  <rect x="5" y="5" width="240" height="240" fill="none" stroke="#7d31cc" stroke-width="3" rx="20" ry="20" filter="url(#glow)" />
  
  <!-- Efekt mgławicy -->
  <ellipse cx="130" cy="90" rx="100" ry="50" fill="#4b0082" opacity="0.3" />
  <ellipse cx="80" cy="160" rx="70" ry="40" fill="#9400d3" opacity="0.2" />
  
  <!-- Gwiazdy różnej wielkości i jasności -->
  <g>
    <circle cx="30" cy="40" r="1.8" fill="white" opacity="0.9" />
    <circle cx="50" cy="25" r="1.2" fill="#8acdff" opacity="0.7" />
    <circle cx="70" cy="15" r="1.5" fill="white" opacity="0.8" />
    <circle cx="100" cy="30" r="2" fill="#ffffc8" opacity="1" filter="url(#glow)" />
    <circle cx="120" cy="20" r="1" fill="white" opacity="0.7" />
    <circle cx="140" cy="45" r="1.5" fill="#8acdff" opacity="0.8" />
    <circle cx="175" cy="30" r="1.2" fill="white" opacity="0.6" />
    <circle cx="160" cy="15" r="2.2" fill="#ffffc8" opacity="0.9" filter="url(#glow)" />
    <circle cx="15" cy="60" r="1" fill="white" opacity="0.8" />
    <circle cx="35" cy="75" r="1.8" fill="#8acdff" opacity="0.7" />
    <circle cx="185" cy="65" r="1" fill="white" opacity="0.7" />
    <circle cx="20" cy="150" r="1.5" fill="white" opacity="0.8" />
    <circle cx="40" cy="130" r="2.5" fill="#ffffc8" opacity="0.9" filter="url(#glow)" />
    <circle cx="165" cy="145" r="1.5" fill="white" opacity="0.7" />
    <circle cx="185" cy="175" r="1" fill="#8acdff" opacity="0.8" />
    <circle cx="150" cy="165" r="1.3" fill="white" opacity="0.6" />
    <circle cx="200" cy="50" r="2.2" fill="#ffffc8" opacity="1" filter="url(#glow)" />
    <circle cx="80" cy="200" r="1.7" fill="white" opacity="0.9" />
    <circle cx="220" cy="190" r="1.4" fill="#8acdff" opacity="0.7" />
    <circle cx="60" cy="185" r="2.3" fill="#ffffc8" opacity="0.8" filter="url(#glow)" />
  </g>
  
  <!-- Większe gwiazdy z efektem świecenia -->
  <g filter="url(#glow)">
    <circle cx="210" cy="75" r="2.5" fill="#ffffc8" />
    <path d="M210,71 L210,79 M206,75 L214,75" stroke="#ffffc8" stroke-width="0.7" />
    
    <circle cx="35" cy="120" r="2" fill="#ffffc8" />
    <path d="M35,116 L35,124 M31,120 L39,120" stroke="#ffffc8" stroke-width="0.5" />
    
    <circle cx="180" cy="210" r="2.2" fill="#ffffc8" />
    <path d="M180,206 L180,214 M176,210 L184,210" stroke="#ffffc8" stroke-width="0.6" />
  </g>
  
  <!-- Meteory -->
  <g>
    <circle cx="190" cy="105" r="15" fill="#888" />
    <circle cx="188" cy="102" r="4" fill="#666" />
    <circle cx="195" cy="108" r="3" fill="#666" />
    <ellipse cx="182" cy="112" rx="5" ry="3" fill="#666" />
    
    <circle cx="65" cy="45" r="10" fill="#777" />
    <circle cx="63" cy="43" r="3" fill="#555" />
    <circle cx="68" cy="48" r="2" fill="#555" />
  </g>
  
  <!-- Statek kosmiczny gracza z lepszym efektem świecenia -->
  <g transform="translate(125, 125)">
    <!-- Efekt silnika rakietowego -->
    <ellipse cx="0" cy="25" rx="8" ry="20" fill="url(#engineGlow)" opacity="0.8" filter="url(#glow)" />
    
    <!-- Korpus statku -->
    <g filter="url(#glow)">
      <polygon points="0,-35 -18,15 0,5 18,15" fill="#00aaff" stroke="#0088cc" stroke-width="1" />
      <rect x="-10" y="5" width="20" height="12" fill="#00aaff" stroke="#0088cc" stroke-width="1" />
      <rect x="-15" y="17" width="30" height="8" fill="#00aaff" stroke="#0088cc" stroke-width="1" />
      
      <!-- Skrzydła -->
      <polygon points="-25,20 -15,17 -15,30 -25,37" fill="#00aaff" stroke="#0088cc" stroke-width="1" />
      <polygon points="25,20 15,17 15,30 25,37" fill="#00aaff" stroke="#0088cc" stroke-width="1" />
      
      <!-- Detale na statku -->
      <rect x="-5" y="-25" width="10" height="5" fill="#0066aa" />
      <rect x="-8" y="-15" width="16" height="3" fill="#0066aa" />
      <circle cx="0" cy="10" r="3" fill="#0066aa" />
      
      <!-- Efekty świetlne statku -->
      <rect x="-3" y="-35" width="6" height="12" fill="#ffff00" opacity="0.8" />
      <circle cx="-12" cy="20" r="2" fill="#39ff14" />
      <circle cx="12" cy="20" r="2" fill="#39ff14" />
    </g>
  </g>
  
  <!-- Lasery -->
  <g filter="url(#glow)">
    <line x1="125" y1="90" x2="125" y2="40" stroke="url(#laserGradient)" stroke-width="3" />
    <line x1="115" y1="85" x2="115" y2="45" stroke="#ff00ff" stroke-width="2" opacity="0.7" />
    <line x1="135" y1="85" x2="135" y2="45" stroke="#ff00ff" stroke-width="2" opacity="0.7" />
    
    <circle cx="125" cy="38" r="3" fill="#ffff00" />
    <circle cx="115" cy="43" r="2" fill="#ff00ff" />
    <circle cx="135" cy="43" r="2" fill="#ff00ff" />
  </g>
  
  <!-- Wrogowie -->
  <g transform="translate(55, 70)">
    <rect x="-15" y="-15" width="30" height="30" fill="#ff3333" stroke="#aa0000" stroke-width="1" />
    <rect x="-10" y="-20" width="20" height="5" fill="#ff3333" stroke="#aa0000" stroke-width="1" />
    <rect x="-5" y="15" width="10" height="5" fill="#ff3333" stroke="#aa0000" stroke-width="1" />
    <line x1="-10" y1="-10" x2="10" y2="10" stroke="#aa0000" stroke-width="2" />
    <line x1="10" y1="-10" x2="-10" y2="10" stroke="#aa0000" stroke-width="2" />
  </g>
  
  <g transform="translate(195, 70)">
    <rect x="-12" y="-12" width="24" height="24" fill="#ff3333" stroke="#aa0000" stroke-width="1" />
    <circle cx="0" cy="0" r="6" fill="#aa0000" />
    <rect x="-15" y="-2" width="30" height="4" fill="#ff3333" stroke="#aa0000" stroke-width="1" />
    <rect x="-2" y="-15" width="4" height="30" fill="#ff3333" stroke="#aa0000" stroke-width="1" />
  </g>
  
  <!-- Eksplozja -->
  <g transform="translate(170, 45)" filter="url(#glow)">
    <circle cx="0" cy="0" r="12" fill="url(#explosionGlow)" />
    <circle cx="0" cy="0" r="6" fill="#ffff00" />
    <path d="M0,-20 L3,-8 L15,-12 L6,-4 L20,0 L6,4 L15,12 L3,8 L0,20 L-3,8 L-15,12 L-6,4 L-20,0 L-6,-4 L-15,-12 L-3,-8 Z" fill="#ff6600" opacity="0.9" />
  </g>
  
  <!-- Mniejsza eksplozja -->
  <g transform="translate(65, 180)" filter="url(#glow)">
    <circle cx="0" cy="0" r="8" fill="url(#explosionGlow)" />
    <circle cx="0" cy="0" r="4" fill="#ffff00" />
    <path d="M0,-14 L2,-6 L10,-8 L4,-3 L14,0 L4,3 L10,8 L2,6 L0,14 L-2,6 L-10,8 L-4,3 L-14,0 L-4,-3 L-10,-8 L-2,-6 Z" fill="#ff6600" opacity="0.9" />
  </g>
  
  <!-- Efekt szlaku kosmicznego -->
  <path d="M40,30 Q125,130 40,230" stroke="#5d4e8d" stroke-width="4" fill="none" opacity="0.3" />
  <path d="M210,30 Q125,100 210,230" stroke="#4a3f70" stroke-width="5" fill="none" opacity="0.2" />
  
  <!-- Przycisk z efektem świecenia -->
  <g transform="translate(125, 200)" filter="url(#buttonGlow)">
    <rect x="-50" y="-20" width="100" height="40" rx="20" ry="20" fill="#0066ff" />
    <rect x="-48" y="-18" width="96" height="36" rx="18" ry="18" fill="#4CAF50" />
    <text x="0" y="7" font-family="Arial, sans-serif" font-size="20" font-weight="bold" text-anchor="middle" fill="white">GRAJ!</text>
    
    <!-- Ikony kontrolera na przycisku -->
    <circle cx="-30" cy="0" r="5" fill="#ffffff" opacity="0.8" />
    <circle cx="30" cy="0" r="5" fill="#ffffff" opacity="0.8" />
  </g>
  
  <!-- Tytuł gry z efektem blasku -->
  <g transform="translate(125, 40)" filter="url(#glow)">
    <text x="0" y="0" font-family="Arial, sans-serif" font-size="22" font-weight="bold" text-anchor="middle" fill="#39ff14">KOSMICZNY</text>
    <text x="0" y="25" font-family="Arial, sans-serif" font-size="24" font-weight="bold" text-anchor="middle" fill="#00ffff">STRZELEC</text>
    
    <!-- Efekt blasku pod tekstem -->
    <ellipse cx="0" cy="12" rx="100" ry="25" fill="#39ff14" opacity="0.15" />
  </g>
  
  <!-- Dodatkowe elementy dekoracyjne -->
  <g filter="url(#glow)">
    <!-- Planeta w oddali -->
    <circle cx="40" cy="200" r="15" fill="#964B00" opacity="0.6" />
    <ellipse cx="40" cy="195" rx="12" ry="5" fill="#B87333" opacity="0.4" />
    
    <!-- Kometa -->
    <path d="M200,40 L230,10" stroke="#ffffff" stroke-width="2" opacity="0.7" />
    <circle cx="200" cy="40" r="3" fill="#ffffff" opacity="0.9" />
    
    <!-- Radar na dole statku -->
    <circle cx="125" cy="145" r="25" fill="none" stroke="#39ff14" stroke-width="1" opacity="0.3" />
    <circle cx="125" cy="145" r="15" fill="none" stroke="#39ff14" stroke-width="1" opacity="0.5" />
    <path d="M125,145 L145,125" stroke="#39ff14" stroke-width="2" opacity="0.8">
      <animateTransform attributeName="transform" attributeType="XML" type="rotate" from="0 125 145" to="360 125 145" dur="4s" repeatCount="indefinite" />
    </path>
  </g>
  
  <!-- Licznik punktów -->
  <g transform="translate(50, 15)">
    <rect x="-30" y="-10" width="60" height="20" rx="5" ry="5" fill="#000033" stroke="#00ffff" stroke-width="1" opacity="0.7" />
    <text x="0" y="5" font-family="Arial, sans-serif" font-size="12" font-weight="bold" text-anchor="middle" fill="#00ffff">SCORE: 9999</text>
  </g>
  
  <!-- Licznik żyć -->
  <g transform="translate(200, 15)">
    <rect x="-30" y="-10" width="60" height="20" rx="5" ry="5" fill="#000033" stroke="#ff3333" stroke-width="1" opacity="0.7" />
    <text x="0" y="5" font-family="Arial, sans-serif" font-size="12" font-weight="bold" text-anchor="middle" fill="#ff3333">LIVES: 3</text>
  </g>
  
  <!-- Efekt tarcz ochronnych wokół statku -->
  <circle cx="125" cy="125" r="35" fill="none" stroke="#0066ff" stroke-width="2" opacity="0.3">
    <animate attributeName="opacity" values="0.3;0.6;0.3" dur="2s" repeatCount="indefinite" />
  </circle>
  
  <!-- Dodatkowe wzmocnienia -->
  <g transform="translate(75, 125)" filter="url(#glow)">
    <polygon points="0,-8 5,8 -5,8" fill="#ffff00" stroke="#ff6600" stroke-width="1" />
    <text x="0" y="20" font-family="Arial, sans-serif" font-size="8" font-weight="bold" text-anchor="middle" fill="#ffff00">POWER-UP</text>
  </g>
</svg>