<svg xmlns="http://www.w3.org/2000/svg" viewBox="0 0 250 250">
  <!-- Definicje gradientów i filtrów -->
  <defs>
    <!-- Gradient tła zimowego nieba -->
    <linearGradient id="skyGradient" x1="0%" y1="0%" x2="0%" y2="100%">
      <stop offset="0%" stop-color="#0033cc" />
      <stop offset="70%" stop-color="#4477ff" />
      <stop offset="100%" stop-color="#88aaff" />
    </linearGradient>
    
    <!-- Gradient dla efektu lodowego blasku -->
    <radialGradient id="iceGlow" cx="50%" cy="50%" r="70%" fx="50%" fy="50%">
      <stop offset="0%" stop-color="#ffffff" />
      <stop offset="70%" stop-color="#88ddff" stop-opacity="0.7" />
      <stop offset="100%" stop-color="#00aaff" stop-opacity="0" />
    </radialGradient>
    
    <!-- Gradient dla efektu lodowego połysku -->
    <linearGradient id="iceShine" x1="0%" y1="0%" x2="100%" y2="100%">
      <stop offset="0%" stop-color="#ffffff" stop-opacity="0.8" />
      <stop offset="50%" stop-color="#88ddff" stop-opacity="0.3" />
      <stop offset="100%" stop-color="#00aaff" stop-opacity="0.1" />
    </linearGradient>
    
    <!-- Filtr dla blasku elementów -->
    <filter id="frostGlow" x="-30%" y="-30%" width="160%" height="160%">
      <feGaussianBlur stdDeviation="3" result="blur" />
      <feFlood flood-color="#88ddff" result="glow-color" />
      <feComposite in="glow-color" in2="blur" operator="in" result="glow-blur" />
      <feMerge>
        <feMergeNode in="glow-blur" />
        <feMergeNode in="SourceGraphic" />
      </feMerge>
    </filter>
    
    <!-- Filtr dla blasku przycisku -->
    <filter id="buttonGlow" x="-20%" y="-20%" width="140%" height="140%">
      <feGaussianBlur stdDeviation="2" result="blur" />
      <feFlood flood-color="#00ffff" result="glow-color" />
      <feComposite in="glow-color" in2="blur" operator="in" result="glow-blur" />
      <feMerge>
        <feMergeNode in="glow-blur" />
        <feMergeNode in="SourceGraphic" />
      </feMerge>
    </filter>
  </defs>
  
  <!-- Tło z ramką -->
  <rect width="250" height="250" fill="url(#skyGradient)" rx="25" ry="25" />
  <rect x="5" y="5" width="240" height="240" fill="none" stroke="#88ddff" stroke-width="3" rx="20" ry="20" filter="url(#frostGlow)" />
  
  <!-- Efekt mgły lodowej -->
  <ellipse cx="125" cy="200" rx="120" ry="40" fill="#ffffff" opacity="0.3" />
  <ellipse cx="80" cy="50" rx="70" ry="30" fill="#aaddff" opacity="0.2" />
  
  <!-- Płatki śniegu w tle -->
  <g>
    <circle cx="30" cy="40" r="2" fill="white" opacity="0.9" />
    <circle cx="50" cy="25" r="1.5" fill="#ddeeff" opacity="0.8" />
    <circle cx="70" cy="15" r="2.2" fill="white" opacity="0.9" />
    <circle cx="90" cy="35" r="1.8" fill="#ddeeff" opacity="0.7" />
    <circle cx="120" cy="20" r="2" fill="white" opacity="0.8" />
    <circle cx="140" cy="45" r="1.7" fill="#ddeeff" opacity="0.9" />
    <circle cx="160" cy="25" r="2.3" fill="white" opacity="0.8" />
    <circle cx="180" cy="15" r="1.6" fill="#ddeeff" opacity="0.7" />
    <circle cx="200" cy="30" r="2.1" fill="white" opacity="0.9" />
    <circle cx="220" cy="50" r="1.9" fill="#ddeeff" opacity="0.8" />
    <circle cx="20" cy="70" r="2.2" fill="white" opacity="0.9" />
    <circle cx="40" cy="90" r="1.7" fill="#ddeeff" opacity="0.7" />
    <circle cx="75" cy="65" r="2" fill="white" opacity="0.8" />
    <circle cx="190" cy="75" r="1.8" fill="#ddeeff" opacity="0.9" />
    <circle cx="210" cy="95" r="2.1" fill="white" opacity="0.8" />
    <circle cx="40" cy="180" r="2.3" fill="white" opacity="0.9" />
    <circle cx="60" cy="200" r="1.5" fill="#ddeeff" opacity="0.8" />
    <circle cx="180" cy="190" r="2.2" fill="white" opacity="0.9" />
    <circle cx="200" cy="210" r="1.6" fill="#ddeeff" opacity="0.7" />
    <circle cx="150" cy="170" r="2" fill="white" opacity="0.8" />
  </g>
  
  <!-- Większe płatki z efektem blasku -->
  <g filter="url(#frostGlow)">
    <circle cx="35" cy="120" r="3" fill="#ffffff" />
    <path d="M35,115 L35,125 M30,120 L40,120" stroke="#ffffff" stroke-width="1" />
    <path d="M32,117 L38,123 M32,123 L38,117" stroke="#ffffff" stroke-width="0.7" />
    
    <circle cx="210" cy="140" r="3.5" fill="#ffffff" />
    <path d="M210,134 L210,146 M204,140 L216,140" stroke="#ffffff" stroke-width="1" />
    <path d="M206,136 L214,144 M206,144 L214,136" stroke="#ffffff" stroke-width="0.7" />
    
    <circle cx="110" cy="220" r="3" fill="#ffffff" />
    <path d="M110,215 L110,225 M105,220 L115,220" stroke="#ffffff" stroke-width="1" />
    <path d="M107,217 L113,223 M107,223 L113,217" stroke="#ffffff" stroke-width="0.7" />
  </g>
  
  <!-- Lodowe wieże/platformy -->
  <g filter="url(#frostGlow)">
    <!-- Wieża tylna -->
    <rect x="40" y="160" width="50" height="12" rx="3" ry="3" fill="#aaddff" stroke="#88ccff" stroke-width="1" />
    <rect x="45" y="140" width="40" height="12" rx="3" ry="3" fill="#bbddff" stroke="#88ccff" stroke-width="1" />
    <rect x="50" y="120" width="30" height="12" rx="3" ry="3" fill="#cceeff" stroke="#88ccff" stroke-width="1" />
    <rect x="55" y="100" width="20" height="12" rx="3" ry="3" fill="#ddeeff" stroke="#88ccff" stroke-width="1" />
    
    <!-- Wieża środkowa (główna) -->
    <rect x="100" y="175" width="70" height="15" rx="4" ry="4" fill="#88ccff" stroke="#66aadd" stroke-width="1.5" />
    <rect x="105" y="150" width="60" height="15" rx="4" ry="4" fill="#99ccff" stroke="#66aadd" stroke-width="1.5" />
    <rect x="110" y="125" width="50" height="15" rx="4" ry="4" fill="#aaddff" stroke="#66aadd" stroke-width="1.5" />
    <rect x="115" y="100" width="40" height="15" rx="4" ry="4" fill="#bbddff" stroke="#66aadd" stroke-width="1.5" />
    <rect x="120" y="75" width="30" height="15" rx="4" ry="4" fill="#cceeff" stroke="#66aadd" stroke-width="1.5" />
    
    <!-- Wieża przednia -->
    <rect x="165" y="165" width="45" height="12" rx="3" ry="3" fill="#aaddff" stroke="#88ccff" stroke-width="1" />
    <rect x="170" y="145" width="35" height="12" rx="3" ry="3" fill="#bbddff" stroke="#88ccff" stroke-width="1" />
    <rect x="175" y="125" width="25" height="12" rx="3" ry="3" fill="#cceeff" stroke="#88ccff" stroke-width="1" />
  </g>
  
  <!-- Efekt lodowego połysku na platformach -->
  <rect x="105" y="150" width="30" height="5" fill="url(#iceShine)" opacity="0.5" />
  <rect x="115" y="100" width="20" height="5" fill="url(#iceShine)" opacity="0.5" />
  <rect x="170" y="145" width="15" height="4" fill="url(#iceShine)" opacity="0.5" />
  
  <!-- Postać gracza skacząca -->
  <g transform="translate(135, 90)" filter="url(#frostGlow)">
    <!-- Ciało -->
    <rect x="-10" y="-15" width="20" height="30" rx="5" ry="5" fill="#FF6347" stroke="#CC3333" stroke-width="1" />
    
    <!-- Głowa -->
    <circle cx="0" cy="-22" r="8" fill="#FF6347" stroke="#CC3333" stroke-width="1" />
    
    <!-- Oczy -->
    <circle cx="-3" cy="-23" r="2" fill="white" />
    <circle cx="3" cy="-23" r="2" fill="white" />
    <circle cx="-3" cy="-23" r="1" fill="#333333" />
    <circle cx="3" cy="-23" r="1" fill="#333333" />
    
    <!-- Ramiona -->
    <rect x="-15" y="-10" width="10" height="6" rx="3" ry="3" fill="#FF6347" stroke="#CC3333" stroke-width="1" transform="rotate(-20)" />
    <rect x="5" y="-10" width="10" height="6" rx="3" ry="3" fill="#FF6347" stroke="#CC3333" stroke-width="1" transform="rotate(20)" />
    
    <!-- Nogi -->
    <rect x="-10" y="15" width="7" height="12" rx="3" ry="3" fill="#FF6347" stroke="#CC3333" stroke-width="1" transform="rotate(-20)" />
    <rect x="3" y="15" width="7" height="12" rx="3" ry="3" fill="#FF6347" stroke="#CC3333" stroke-width="1" transform="rotate(20)" />
    
    <!-- Efekt ruchu (dynamika) -->
    <path d="M-5,20 L-15,30 M5,20 L15,30" stroke="#ffffff" stroke-width="2" stroke-opacity="0.6" />
  </g>
  
  <!-- Efekt "podskoku" wokół gracza -->
  <ellipse cx="135" cy="115" rx="30" ry="10" fill="#ffffff" opacity="0.3" filter="url(#frostGlow)" />
  
  <!-- Tytuł gry z efektem blasku -->
  <g transform="translate(125, 40)" filter="url(#frostGlow)">
    <text x="0" y="0" font-family="Arial, sans-serif" font-size="28" font-weight="bold" text-anchor="middle" fill="#ffffff">ICY</text>
    <text x="0" y="25" font-family="Arial, sans-serif" font-size="24" font-weight="bold" text-anchor="middle" fill="#aaddff">TOWER</text>
    <!-- Efekt blasku pod tekstem -->
    <ellipse cx="0" cy="12" rx="85" ry="25" fill="#ffffff" opacity="0.15" />
  </g>
  
  <!-- Liczniki graficzne -->
  <g transform="translate(45, 20)">
    <rect x="-30" y="-10" width="60" height="20" rx="5" ry="5" fill="#003366" stroke="#88ddff" stroke-width="1" opacity="0.7" />
    <text x="0" y="5" font-family="Arial, sans-serif" font-size="12" font-weight="bold" text-anchor="middle" fill="#88ddff">WYSOKOŚĆ: 42m</text>
  </g>
  
  <g transform="translate(200, 20)">
    <rect x="-30" y="-10" width="60" height="20" rx="5" ry="5" fill="#003366" stroke="#88ddff" stroke-width="1" opacity="0.7" />
    <text x="0" y="5" font-family="Arial, sans-serif" font-size="12" font-weight="bold" text-anchor="middle" fill="#88ddff">WYNIK: 1337</text>
  </g>
  
  <!-- Przycisk GRAJ! z efektem świecenia -->
  <g transform="translate(125, 215)" filter="url(#buttonGlow)">
    <rect x="-50" y="-15" width="100" height="30" rx="15" ry="15" fill="#0066cc" />
    <rect x="-48" y="-13" width="96" height="26" rx="13" ry="13" fill="#2288dd" />
    <text x="0" y="6" font-family="Arial, sans-serif" font-size="18" font-weight="bold" text-anchor="middle" fill="white">GRAJ!</text>
  </g>
</svg>