<svg xmlns="http://www.w3.org/2000/svg" viewBox="0 0 250 250">
  <!-- Tło z gradientem nieba -->
  <defs>
    <linearGradient id="skyGradient" x1="0%" y1="0%" x2="0%" y2="100%">
      <stop offset="0%" stop-color="#70c4ff" />
      <stop offset="100%" stop-color="#c8e6ff" />
    </linearGradient>
    
    <!-- Gradient dla efektu świecenia elementów -->
    <radialGradient id="glowEffect" cx="50%" cy="50%" r="50%" fx="50%" fy="50%">
      <stop offset="0%" stop-color="#ffcc00" />
      <stop offset="100%" stop-color="#ff9900" stop-opacity="0" />
    </radialGradient>
    
    <!-- Filtr dla blasku -->
    <filter id="glow" x="-50%" y="-50%" width="200%" height="200%">
      <feGaussianBlur stdDeviation="2.5" result="blur" />
      <feMerge>
        <feMergeNode in="blur" />
        <feMergeNode in="SourceGraphic" />
      </feMerge>
    </filter>
    
    <!-- Filtr dla blasku przycisków -->
    <filter id="buttonGlow" x="-30%" y="-30%" width="160%" height="160%">
      <feGaussianBlur stdDeviation="3" result="blur" />
      <feFlood flood-color="#ffcc00" result="glow-color" />
      <feComposite in="glow-color" in2="blur" operator="in" result="glow-blur" />
      <feMerge>
        <feMergeNode in="glow-blur" />
        <feMergeNode in="SourceGraphic" />
      </feMerge>
    </filter>
  </defs>
  
  <!-- Tło nieba -->
  <rect width="250" height="250" fill="url(#skyGradient)" rx="25" ry="25" />
  <rect x="5" y="5" width="240" height="240" fill="none" stroke="#ffcc00" stroke-width="3" rx="20" ry="20" filter="url(#glow)" />
  
  <!-- Chmury -->
  <g opacity="0.8">
    <ellipse cx="50" cy="50" rx="25" ry="15" fill="#ffffff" />
    <ellipse cx="65" cy="45" rx="20" ry="12" fill="#ffffff" />
    <ellipse cx="35" cy="45" rx="18" ry="10" fill="#ffffff" />
    
    <ellipse cx="200" cy="70" rx="30" ry="15" fill="#ffffff" />
    <ellipse cx="180" cy="65" rx="20" ry="12" fill="#ffffff" />
    <ellipse cx="220" cy="65" rx="18" ry="10" fill="#ffffff" />
    
    <ellipse cx="100" cy="30" rx="20" ry="10" fill="#ffffff" />
    <ellipse cx="120" cy="35" rx="15" ry="8" fill="#ffffff" />
  </g>
  
  <!-- Rury (przeszkody) -->
  <g filter="url(#glow)">
    <!-- Rura górna -->
    <rect x="170" y="0" width="30" height="70" fill="#33cc33" stroke="#008800" stroke-width="2" />
    <rect x="165" y="70" width="40" height="10" fill="#33cc33" stroke="#008800" stroke-width="2" rx="5" ry="5" />
    
    <!-- Rura dolna -->
    <rect x="170" y="150" width="30" height="100" fill="#33cc33" stroke="#008800" stroke-width="2" />
    <rect x="165" y="140" width="40" height="10" fill="#33cc33" stroke="#008800" stroke-width="2" rx="5" ry="5" />
    
    <!-- Rura górna 2 -->
    <rect x="80" y="0" width="30" height="90" fill="#33cc33" stroke="#008800" stroke-width="2" />
    <rect x="75" y="90" width="40" height="10" fill="#33cc33" stroke="#008800" stroke-width="2" rx="5" ry="5" />
    
    <!-- Rura dolna 2 -->
    <rect x="80" y="170" width="30" height="80" fill="#33cc33" stroke="#008800" stroke-width="2" />
    <rect x="75" y="160" width="40" height="10" fill="#33cc33" stroke="#008800" stroke-width="2" rx="5" ry="5" />
  </g>
  
  <!-- Ptak -->
  <g transform="translate(125, 125)" filter="url(#glow)">
    <!-- Ciało -->
    <ellipse cx="0" cy="0" rx="22" ry="18" fill="#ffcc00" stroke="#ff6600" stroke-width="2" />
    
    <!-- Skrzydła -->
    <ellipse cx="-5" cy="-5" rx="18" ry="10" fill="#ffaa00" stroke="#ff6600" stroke-width="1" transform="rotate(-20)">
      <animate attributeName="ry" values="10;8;10" dur="0.5s" repeatCount="indefinite" />
    </ellipse>
    
    <!-- Oczy -->
    <circle cx="12" cy="-5" r="5" fill="#ffffff" stroke="#000000" stroke-width="1" />
    <circle cx="14" cy="-5" r="2" fill="#000000" />
    
    <!-- Dziób -->
    <path d="M20,-2 L30,2 L20,6 Z" fill="#ff6600" stroke="#ff3300" stroke-width="1" />
  </g>
  
  <!-- Moneta/punkty -->
  <g transform="translate(40, 125)">
    <circle cx="0" cy="0" r="12" fill="#ffdd00" stroke="#ff9900" stroke-width="2" filter="url(#glow)" />
    <text x="0" y="5" font-family="Arial, sans-serif" font-size="16" font-weight="bold" text-anchor="middle" fill="#ff6600">$</text>
  </g>
  
  <!-- Licznik punktów -->
  <g transform="translate(50, 15)">
    <rect x="-30" y="-10" width="60" height="20" rx="5" ry="5" fill="#3399ff" stroke="#ffcc00" stroke-width="1" opacity="0.7" />
    <text x="0" y="5" font-family="Arial, sans-serif" font-size="12" font-weight="bold" text-anchor="middle" fill="#ffcc00">SCORE: 42</text>
  </g>
  
  <!-- Tytuł gry z efektem blasku -->
  <g transform="translate(125, 40)" filter="url(#glow)">
    <text x="0" y="0" font-family="Arial, sans-serif" font-size="24" font-weight="bold" text-anchor="middle" fill="#ff6600">SKY</text>
    <text x="0" y="30" font-family="Arial, sans-serif" font-size="24" font-weight="bold" text-anchor="middle" fill="#ffcc00">DODGE</text>
    <!-- Efekt blasku pod tekstem -->
    <ellipse cx="0" cy="15" rx="80" ry="30" fill="#ffcc00" opacity="0.15" />
  </g>
  
  <!-- Przycisk z efektem świecenia -->
  <g transform="translate(125, 200)" filter="url(#buttonGlow)">
    <rect x="-50" y="-20" width="100" height="40" rx="20" ry="20" fill="#ff9900" />
    <rect x="-48" y="-18" width="96" height="36" rx="18" ry="18" fill="#ffaa33" />
    <text x="0" y="7" font-family="Arial, sans-serif" font-size="20" font-weight="bold" text-anchor="middle" fill="white">GRAJ!</text>
  </g>
</svg>