<svg xmlns="http://www.w3.org/2000/svg" viewBox="0 0 250 250">
  <!-- Tło z gradientem nawiązującym do drogi i prędkości -->
  <defs>
    <linearGradient id="roadGradient" x1="0%" y1="0%" x2="100%" y2="100%">
      <stop offset="0%" stop-color="#333333" />
      <stop offset="50%" stop-color="#444444" />
      <stop offset="100%" stop-color="#555555" />
    </linearGradient>
    
    <!-- Gradient dla efektu świateł samochodu -->
    <radialGradient id="carGlow" cx="50%" cy="50%" r="50%" fx="50%" fy="50%">
      <stop offset="0%" stop-color="#ff0000" />
      <stop offset="100%" stop-color="#ff4500" stop-opacity="0" />
    </radialGradient>
    
    <!-- Filtr dla blasku -->
    <filter id="glow" x="-50%" y="-50%" width="200%" height="200%">
      <feGaussianBlur stdDeviation="2.5" result="blur" />
      <feMerge>
        <feMergeNode in="blur" />
        <feMergeNode in="SourceGraphic" />
      </feMerge>
    </filter>
  </defs>
  
  <!-- Tło z gradientem drogi -->
  <rect width="250" height="250" fill="url(#roadGradient)" rx="25" ry="25" />
  
  <!-- Linie drogi -->
  <rect x="100" y="0" width="10" height="250" fill="#ffffff" opacity="0.5" />
  <rect x="100" y="0" width="5" height="250" fill="#ffffff" opacity="0.8" />
  
  <!-- Samochód gracza -->
  <g transform="translate(125, 125)">
    <rect x="-25" y="-50" width="50" height="100" fill="red" rx="10" ry="10" filter="url(#glow)" />
    <rect x="-20" y="-40" width="40" height="80" fill="#ff4444" rx="8" ry="8" />
    <circle cx="-15" cy="30" r="5" fill="#000000" />
    <circle cx="15" cy="30" r="5" fill="#000000" />
    <rect x="-10" y="-50" width="20" height="10" fill="#ffffff" opacity="0.8" />
  </g>
  
  <!-- Przeszkoda -->
  <rect x="50" y="200" width="50" height="80" fill="blue" rx="8" ry="8" />
  
  <!-- Efekt świateł samochodu -->
  <ellipse cx="125" cy="250" rx="30" ry="20" fill="url(#carGlow)" opacity="0.6" />
  
  <!-- Tytuł gry -->
  <g transform="translate(125, 40)" filter="url(#glow)">
    <text x="0" y="0" font-family="Arial, sans-serif" font-size="24" font-weight="bold" text-anchor="middle" fill="#ffffff">SPEED</text>
    <text x="0" y="30" font-family="Arial, sans-serif" font-size="24" font-weight="bold" text-anchor="middle" fill="#ff0000">DASH</text>
  </g>
  
  <!-- Przycisk z efektem świecenia -->
  <g transform="translate(125, 200)" filter="url(#glow)">
    <rect x="-50" y="-20" width="100" height="40" rx="20" ry="20" fill="#ff0000" />
    <rect x="-48" y="-18" width="96" height="36" rx="18" ry="18" fill="#ff4444" />
    <text x="0" y="7" font-family="Arial, sans-serif" font-size="20" font-weight="bold" text-anchor="middle" fill="white">GRAJ!</text>
  </g>
</svg>